<?xml version="1.0" encoding="UTF-8"?>
<svg version="1.1" viewBox="0 0 2048 665" width="702" height="228" xmlns="http://www.w3.org/2000/svg">
<path transform="translate(704,108)" d="m0 0h31v2l11 1 14 8 9 9 4 8 3 9 2 7 1 2v15l3 1v231l-2 2-1 48-1 1-7 1-1 1-9 1-22 1-1 1-9 1h-20v2l-14 1h-12l-1-3v-96l1-40 1-1 1-118-3-9-4-4-5 2-1 1-1 171-3 1v98l-1 1-7 1-1 1-20 2-1 1-22 2-1 1-20 2-1 1-21 1-1-1v-147l2-3v-122l-5-6-2-1h-6l-1 168-2 2-1 112-4 3-13 2-30 5-10 2-23 4-10 2h-6v-139l2-2 1-235 5-1h56v-2l22-1 1 1 1 16 2 1 1 17 2-3 7-13 9-10 6-5 11-6 9-3h31l3 2 9 3 9 5 8 8 8 16 3-6 7-10 15-15 10-4z" fill="#284169"/>
<path transform="translate(108,43)" d="m0 0 40 1 6 2 7 2 6 3 9 3 14 9 17 17 4 7 5 10 4 13 2 7v8h2l1 6v107l-1 1-19 1-2 2h-25v2l-6 1h-20v2l-8 1h-12l-1-1-1-103-5-9h-9l-3 11h-2l1 358 2 2h5l6-7 2-4 1-110h-11v-84l6-3 19-2 1-1 20-2 1-1 19-2 1-1 13-1h10v-2h17l1 1v220l-1 9-1 1-1 36-9 4-18 5-18 6-10 2-9 3-8 2-4-10-1-18-4-7-6 16-8 16-5 8-4 4-3 6-2 2-5 2-9 6-15 6h-26v-2h-7l-5-5-6-3-7-7-10-21-2-9-2-10-1-1-1-7v-10h-2l-1-53v-274l1-72 2-3 1-12 1-1 2-10 4-8 2-7 4-5 5-10 12-12 7-4 6-5 13-6 13-4 1-1z" fill="#284169"/>
<path transform="translate(1904,128)" d="m0 0h48l3 1v2h12l9 5 8 2 16 10 13 13 6 9 6 11 5 12 1 12 2 3v16l3 1v171l-2 1-28-6-70-14-7-1v130l4 10 1 3h3l2-4 2-7 1-2 1-92 12 1 35 8 28 6 1 1 14 2 3 2v76l-2 3-1 23-2 4-1 11-1 1-2 11-5 12-5 9-3 4-3 5-6 5-10 5-8 1h-21l-11-1-14-4-20-7-3-2-7-2-12-6-5-4-5-3-10-7-15-15-7-10-8-16-6-16-2-5-2-13-1-2-1-14-2-3-1-30-2-2v-242l2-3 2-10 3-12 8-16 7-8 6-5 11-7 10-5 6-2 2-1 9-1zm28 79-3 3-1 13v84l1 2 7 3h4v-101l-3-4z" fill="#284169"/>
<path transform="translate(331,116)" d="m0 0h39l15 1v2h11l9 3 16 8 9 9 7 14 3 8v16l3 1v169h-2v136l-1 18-9 3-13 2-10 2-6 2-26 5-3 1-7 1-5 2-9 1-7 2-1-1v-20h-2l-1 6-5 6-6 8-8 8-17 8-5 2-14 2-1 1h-20l-1-2-7-1-11-11-4-8-2-7-1-2v-12h-2l-1-4v-107l2-4 1-14 2-3 1-9 11-21 9-12 14-14 9-6 8-6 13-8 11-7 12-8 7-7 4-7 3-9v-63l-4-2-5 5-2 40-1 1-1 29-1 6-3 2h-25l-1 3-22 1-4 2-19 1-4 2h-5l-3-6-1-1v-12l2-2 1-68 2-2 1-12 5-13 9-17 8-11 11-7 7-4 18-6h9v-2zm11 219-6 10-4 9-1 7-1 1v87l3 6 8-6 1-11 2-4v-99z" fill="#284169"/>
<path transform="translate(1116,46)" d="m0 0h30l15 1v2h11l12 4 16 8 10 6 10 10 6 9 5 9 2 7 3 9 1 2v15l3 1v63h-88l-1-2h-10l-1-56-3-5-4-3-4 1-2 3-2 7-1 2v32l2 3 3 9 6 8 9 7 22 11 9 3 20 10 11 8 9 6 10 10 4 7 5 8 3 7 3 9 1 8 2 4v23l3 1v37l-1 3h-2v20l-2 4-1 9-2 3-2 7-8 17-18 18-7 4-2 2-9 3-6 3-7 2-13 2-5 2h-49l-4-2-13-1-16-4-14-5-12-7-5-4-4-5-5-5-4-5-8-16-3-9-2-10-1-1v-19h-2l-1-2v-41l1-1h94l2 2 7 1 1 1 1 59 5 8 5 1 3-4 3-12v-29l-2-5-2-10-7-13-8-7-6-4-15-8-11-6-1-3h-7l-6-5-10-5-8-7-5-3-7-7-8-13-7-15-3-8-1-11-2-3-1-18-2-3v-49l2-3 1-18 2-3 2-10 4-11 6-11 8-11 9-8 13-6 15-5 16-2 1-1z" fill="#284169"/>
<path transform="translate(1497,114)" d="m0 0h66l6 2 17 4 12 6 11 8 15 15 7 15 3 10 3 12v14l2 1 1 5v210l-1 12-2 4v8l-2 7-2 11-4 10-5 10-14 14-9 4h-5v2l-14 1h-26l-13-1-1-1-16-3-20-5-19-9-8-3-6-6-6-3-5-5-4-7-5-6-8-16-4-11-2-9-1-3-1-11-2-4-1-31-2-4v-182l2-5 2-10 4-11 6-11 13-13 21-10 5-2 11-2zm36 64-4 3v183l1 1 1 20 1 40 5 5h4l2-2 1-9 2-3v-7l-2-3-1-219-3-9z" fill="#284169"/>
<path transform="translate(882,105)" d="m0 0h45l2 2 18 1 3 2 7 2 9 3 12 6 6 6 5 3 3 5 5 5 3 9 3 6 1 13 2 1v119l-3 1h-107l1 98 3 6 4-1 5-8 1-68 1-1 51-1 1-2h43l1 12-1 43-2 3v9l-1 6h-2v9l-2 3-2 8-7 13-3 3-2 5-8 8-12 6-3 3-24 6-12 1-7 2h-58l-2-2-12-1-19-10-13-13-7-15-5-15-1-2-1-14-2-4v-199l2-3 1-11 5-13 6-11 3-4 3-5 9-6 6-5 13-6 5-2 11-2 1-1 14-1zm21 58-4 4-3 5v67h14v-69l-4-7z" fill="#284169"/>
<path transform="translate(1297,52)" d="m0 0h73l1 1v61h50v69l-4 1h-43l1 188 2 3 1 9 8 8 2 1 9 1 1 1 7 1 18 1 1 15v54l-7 1h-8v2h-46l-9-2-17-4-24-9-7-7-5-2-3-3-2-5-7-8-6-13-3-12-1-7-1-1-1-208-2-6v-4h-26v-52l10-4 17-6 5-3h2l2-5 1-8 3-14 1-7 1-1 2-16 3-9z" fill="#284169"/>
<path transform="translate(1661,122)" d="m0 0h37l3 1v2h40l1 4v8h2l2 20 2 5 2 1 1-5 5-8 18-18 8-4 10-3h23l8 4v104h-10l-7-2h-22l-12 6-2 5h-2l-2 4-3 7-2 7-1 1-1 15-2 2v182l2 1v73l-10-1-64-16-21-4-1-1-1-100-2-2v-287z" fill="#294169"/>
<path transform="translate(949,551)" d="m0 0h36l4 8 1 12h1l1-10 2-2 1-8h37l1 5v4l3 1v59l-1 1h-22l-1-1-1-15-2-4v-3l-2 1-1 13-3 9h-26l-1-11-2-4v-11h-2v25l-1 1h-26v-33l1-2h2v-34z" fill="#284169"/>
<path transform="translate(295,551)" d="m0 0h25l3 6 2 17 2 3v6h3l-1-2v-9l3-13 1-8h28l1 1 1 7 1 1 1 14 3 5 2 1v-10l1-7h2v-7l1-5h25l1 1-1 14h-2v10l-2 2-1 10-2 2-1 10-3 1v10l-2 2-1 8h-32l-1-5-2-1v-17h-3l-2 5-1 12h-2l-1 6h-32l-1-8-2-3-4-20-2-5-1-7-2-6-2-7z" fill="#294169"/>
<path transform="translate(151,46)" d="m0 0 9 1 7 4 9 3 14 9 17 17 4 7 5 10 4 13 2 7v8h2l1 6v107l-1 1-19 1-2 2h-25v2l-6 1h-20v2l-8 1h-12l-1-1-1-103-5-9h-9l-3 11h-2l1 358 2 2h5l6-7 2-4 1-110h-11v-84l6-3 19-2 1-1 20-2 1-1 19-2 1-1 13-1h10v-2h17l1 1v220l-1 9-2 1-1-2v-227l-4 1-13 1-10 2-31 4-26 4-16 2-1 2-1 77 14-1v105l-2 12-5 8-5 4-5 1-6-4-2-6-1-7v-174l1-170 3-12 5-6 2-1h7l5 3 4 9v102l15-1 14-2 14-1 12-2 29-3h4l1-37v-43l-3-30-5-21-5-12-6-10-11-12-9-7-14-8-17-6-3-2z" fill="#FCFAFA"/>
<path transform="translate(1246,551)" d="m0 0h25l3 3 3 6 7 10 3 5 1 2 2-26h22l1 1v68l-1 1h-25l-4-8-8-11-2-4-1 22-1 1h-25l-1-9z" fill="#284169"/>
<path transform="translate(1684,551)" d="m0 0h24l5 5 8 11 5 10 1-25 1-1h22v70h-25l-6-12-8-11-1 1-1 22h-26v-69z" fill="#284169"/>
<path transform="translate(558,551)" d="m0 0h48l8 6 4 7v19l-5 4 2 5 2 11 1 1 2 11 1 1v5h-29l-1-11-2-4v-8l-5 1-1 22h-26l-3-5v-59l3-5zm27 17-2 2v10l4-1 5-2v-5l-5-4z" fill="#284169"/>
<path transform="translate(0)" d="m0 0h6v665h-6z" fill="#2C456C"/>
<path transform="translate(1184,551)" d="m0 0h31l8 5 5 5 3 7 2 6 1 2v18l-2 2-1 10-5 6-4 6-5 2-1 1h-37l-10-7-5-6-3-10v-24l7-14 9-6zm12 18-6 3v24l6 7 4-1 5-6v-20l-6-7z" fill="#284169"/>
<path transform="translate(1904,128)" d="m0 0h48l3 1v2h12l9 5 8 2 16 10 13 13 6 9 6 11 5 12 1 12 2 3v16l3 1v171l-2 1-28-6-70-14-7-1-1 130-2-2-1-12v-120h7l74 15 27 5v-130l-1-34-4-27-5-16-7-14-7-9-9-10-13-8-8-4-17-6-20-3h-30l-19 3-15 5-12 7-10 9-7 9-7 16-4 16-2 18v135l1 80 2 36 3 22 6 24 7 18 7 13 7 9 9 10 3 2v2l4 2 16 10 16 8 21 9 21 5 9 1h18l10-2 9-6 4-2 2-4 7-10 6-17 5-22 2-18 1-7 2 1-1 23-2 4-1 11-1 1-2 11-5 12-5 9-3 4-3 5-6 5-10 5-8 1h-21l-11-1-14-4-20-7-3-2-7-2-12-6-5-4-5-3-10-7-15-15-7-10-8-16-6-16-2-5-2-13-1-2-1-14-2-3-1-30-2-2v-242l2-3 2-10 3-12 8-16 7-8 6-5 11-7 10-5 6-2 2-1 9-1z" fill="#FDFBFB"/>
<path transform="translate(791,551)" d="m0 0h25l1 1v22h11l1-23h25l1 1v68l-1 1h-25l-1-1v-27l-11-1v28l-1 1h-25l-1-1v-64z" fill="#284169"/>
<path transform="translate(1492,551)" d="m0 0h50l10 10v24l-5 6 2 2 2 5 1 1 1 10 2 2v10h-26l-3-7-2-10-2-5-4-1-1 23h-26v-69zm26 17-1 1v11l9-3v-8z" fill="#284169"/>
<path transform="translate(412,551)" d="m0 0h25l1 3-1 20 12 1v-22l1-2h25l1 1v32l-1 37h-25l-1-1v-28h-12l1 28-1 1h-26v-68z" fill="#284169"/>
<path transform="translate(885,551)" d="m0 0h33l1 1 1 7 2 5 1 7 4 10 3 9 4 16 2 4 1 10-1 1h-26l-1-8-3-6h-12l-2 11-3 3h-25v-5l2-6 4-14 10-30 2-9zm14 29-1 2 2 7h4l-2-4-2-5z" fill="#284169"/>
<path transform="translate(1582,551)" d="m0 0h30l3 3 4 11 1 8 4 10 4 13 1 7 4 10 1 7-1 1h-25l-4-10-1-4h-12l-2 8-2 6h-26v-7l2-3 4-18 12-35zm14 29v9h3l-1-9z" fill="#284169"/>
<path transform="translate(1051,551)" d="m0 0h47l9 5 4 8v21l-5 9-5 4h-24v22l-1 1h-26v-69zm26 17-1 1v10l1 1h8v-8l-3-3z" fill="#284169"/>
<path transform="translate(1338,551)" d="m0 0h41l1 1v9l-2 3-1 7-4 1h-10l-6 1 9 3 10 5 4 4 3 7v15l-4 8-3 3-6 3h-40l-3-5v-10l4-5 21-1 1-1-15-6-10-10-1-2v-13l3-9 6-7z" fill="#284169"/>
<path transform="translate(1116,46)" d="m0 0h30l15 1v2h11l12 4 16 8 10 6 10 10 6 9 5 9 2 7 3 9 1 2v15l3 1v63h-88l-1-2h-10l-1-56-3-5-4-3-4 1-2 3-2 7-3-1 2-9 5-5h7l5 5 3 6 1 10 1 43 31 1 60 1-1-50-2-19-3-13-6-15-7-10-9-10-9-6-15-8-8-3-15-3-11-1h-41l-16 2-15 3-14 5-10 6-9 9-7 11-4 8-5 17-3 20-1 11v39l2 20 6 24 6 14 6 9 9 10 15 12 10 6 19 9 16 9 11 8 9 10 5 10 3 11 1 8v27l-2 13-5 5-2 1h-6l-5-4-3-9-1-5-1-29v-25l4 1 1 59 5 8 5 1 3-4 3-12v-29l-2-5-2-10-7-13-8-7-6-4-15-8-11-6-1-3h-7l-6-5-10-5-8-7-5-3-7-7-8-13-7-15-3-8-1-11-2-3-1-18-2-3v-49l2-3 1-18 2-3 2-10 4-11 6-11 8-11 9-8 13-6 15-5 16-2 1-1z" fill="#FDFBFB"/>
<path transform="translate(631,551)" d="m0 0h51l1 1-1 16-25 1-1 8 24 1v16l-1 1h-23l1 8 25 1 1 3v13l-1 1h-52v-69z" fill="#284169"/>
<path transform="translate(491,551)" d="m0 0h51l1 1-1 16-1 1h-24l-1 8 24 1v16l-1 1h-23l1 8 25 1 1 16-1 1h-52v-69z" fill="#284169"/>
<path transform="translate(743,551)" d="m0 0h32l1 1v19l-7 1h-18l-3 9v10l2 6 5 2 2 1 21 1 1 1v15l-4 4h-36l-8-5-7-7-4-10v-23l4-12 4-5z" fill="#284169"/>
<path transform="translate(337,184)" d="m0 0h7l3 3 2 6v42l-2 18-4 11-5 8-11 10-13 8-17 11-12 8-10 8-6 7-5 5-8 11-8 16-4 14-2 15-1 16v93l3 17 5 12 8 9 3 3 10 2h17l12-2 10-4 11-7 10-9 7-10 10-19h1v31l52-11 23-5 11-2h4v-76l1-12 1-61h1v133l-1 18-9 3-13 2-10 2-6 2-26 5-3 1-7 1-5 2-9 1-7 2-1-1v-20h-2l-1 6-5 6-6 8-8 8-17 8-5 2-14 2-1 1h-20l-1-2-7-1-11-11-4-8-2-7-1-2v-12h-2l-1-4v-107l2-4 1-14 2-3 1-9 11-21 9-12 14-14 9-6 8-6 13-8 11-7 12-8 7-7 4-7 3-9v-63l-4-2-5 5-2 40h-3v-36l3-9z" fill="#FEFCFC"/>
<path transform="translate(108,43)" d="m0 0 4 1-8 2-16 2-19 7-12 7-10 9h-2l-2 4-5 6-8 14-6 18-4 19-2 25v346l2 27 4 24 5 16 6 12 6 8 11 9 14 3h17l12-4 11-7 10-9 8-11 10-22 9-27 2 1 7 45v3l14-5 11-3 39-11 4-2 1-26h1v29l-9 4-18 5-18 6-10 2-9 3-8 2-4-10-1-18-4-7-6 16-8 16-5 8-4 4-3 6-2 2-5 2-9 6-15 6h-26v-2h-7l-5-5-6-3-7-7-10-21-2-9-2-10-1-1-1-7v-10h-2l-1-53v-274l1-72 2-3 1-12 1-1 2-10 4-8 2-7 4-5 5-10 12-12 7-4 6-5 13-6 13-4 1-1z" fill="#FEFCFC"/>
<path transform="translate(1418,551)" d="m0 0h61v20h-17v49l-1 1h-26v-50l-10 1-5-1-2-3z" fill="#284169"/>
<path transform="translate(1497,114)" d="m0 0h18l-2 2-25 4-16 6-9 5-10 9-7 10-6 16-3 17v103l1 82 2 27 4 21 5 15 8 16 7 10 8 8 13 9 15 7 20 7 22 5 23 2h20l12-2 12-6 7-6 8-11 5-12 5-21 1-6 2 1v8l-2 7-2 11-4 10-5 10-14 14-9 4h-5v2l-14 1h-26l-13-1-1-1-16-3-20-5-19-9-8-3-6-6-6-3-5-5-4-7-5-6-8-16-4-11-2-9-1-3-1-11-2-4-1-31-2-4v-182l2-5 2-10 4-11 6-11 13-13 21-10 5-2 11-2z" fill="#FDFBFB"/>
<path transform="translate(882,105)" d="m0 0h45l2 3-46 1-19 3-21 6-10 6-10 8-9 13-6 14-3 16-1 10-1 114v58l1 17 4 22 4 13 8 14 8 9 10 7 12 5 15 3 11 1h36l17-2 21-4 15-6 11-8 3-1v-2l5-5 7-11 5-12 5-22 1-5h2v9l-1 6h-2v9l-2 3-2 8-7 13-3 3-2 5-8 8-12 6-3 3-24 6-12 1-7 2h-58l-2-2-12-1-19-10-13-13-7-15-5-15-1-2-1-14-2-4v-199l2-3 1-11 5-13 6-11 3-4 3-5 9-6 6-5 13-6 5-2 11-2 1-1 14-1z" fill="#FEFCFC"/>
<path transform="translate(1910,171)" d="m0 0h6l-3 2-10 5-10 9-6 9-4 13-1 6v69l1 40v163l2 14 5 16-1 2-7-14-4-15-2-25-1-43-1-69v-24l1-97 2-21 5-16 6-9 4-5 10-7z" fill="#FEFCFC"/>
<path transform="translate(1661,122)" d="m0 0h37l3 1v3h-38l3 319 1 64 36 8 52 13v-72l4 3v73l-10-1-64-16-21-4-1-1-1-100-2-2v-287z" fill="#FEFCFC"/>
<path transform="translate(673,187)" d="m0 0h9l5 6 2 8v50l-2 206 17-1 21-2 29-3 15-1 9-1v-27h1v29l-1 1-7 1-1 1-9 1-22 1-1 1-9 1h-20v2l-14 1h-12l-1-3v-96l1-40 1-1 1-118-3-9-4-4-5 2-1 1-1 171h-4v-78l1-95 3-3z" fill="#FCFAFA"/>
<path transform="translate(2045)" d="m0 0h3v665h-3z" fill="#B6BDCB"/>
<path transform="translate(561,192)" d="m0 0h10l5 5 2 6v81l-1 74-1 112 1 2 35-4 12-2 34-4 8-1v-42h1l1 11v33l-1 1-7 1-1 1-20 2-1 1-22 2-1 1-20 2-1 1-21 1-1-1v-147l2-3v-122l-5-6-2-1h-6l-1 168-3 2-1-3v-48l1-120z" fill="#FBF9FA"/>
<path transform="translate(1322,101)" d="m0 0 2 1 2 41 2 1 39 2 9 1 1 2-5 1-45 1v243l-2-3-2-9-2-35-1-37-1-159-30-4-2-2 33-1 1-39z" fill="#FEFCFC"/>
<path transform="translate(1297,52)" d="m0 0h30v1l-24 1-4 1-5 28-6 31-5 3-12 4-12 5-7 3v44l27 2 1 1 1 77 1 132 3 21 5 15 7 11 9 10 8 6 16 8 13 4 12 3 12 2h41l2-1 11-1v-39l-1-26-2-1h5l1 15v54l-7 1h-8v2h-46l-9-2-17-4-24-9-7-7-5-2-3-3-2-5-7-8-6-13-3-12-1-7-1-1-1-208-2-6v-4h-26v-52l10-4 17-6 5-3h2l2-5 1-8 3-14 1-7 1-1 2-16 3-9z" fill="#FEFCFC"/>
<path transform="translate(465,119)" d="m0 0h53l2 2-23 1h-28l-3 297v73l49-9 39-7 1-61 2-1v64l-4 3-13 2-30 5-10 2-23 4-10 2h-6v-139l2-2 1-235z" fill="#FEFCFC"/>
<path transform="translate(1643,551)" d="m0 0h25l1 1v68l-1 1h-25l-1-1v-66z" fill="#2C456C"/>
<path transform="translate(704,108)" d="m0 0h31v2l11 1 14 8 9 9 4 8 3 9 2 7 1 2v15l3 1v231l-3 2-1-1v-213l-1-21-4-20-4-12-6-9-5-5-9-6-13-4-6-1h-21l-13 4-11 8-5 6-4 4-5 8-5 13-3-3-8-17-9-10-10-6-13-4-17-1-14 3-9 4-8 6-8 8-8 13-6 17-2-1-6-42-20-1v-3l22-1 1 1 1 16 2 1 1 17 2-3 7-13 9-10 6-5 11-6 9-3h31l3 2 9 3 9 5 8 8 8 16 3-6 7-10 15-15 10-4z" fill="#FEFCFC"/>
<path transform="translate(1574,157)" d="m0 0 4 2 6 8 5 12 3 16 1 15 2 62v121l-1 23-3 20-4 10-6 9h-2l-1 3-8 5-3-1 9-7 7-10 4-12 1-9v-39l-2-75v-111l-2-20-3-10-6-10z" fill="#FEFCFC"/>
<path transform="translate(1533,173)" d="m0 0 7 1 4 5 2 5 1 16 1 127v98l-3 6-4 3-5-1-5-4-2-5-1-7v-59h1l2 7 1 20 1 40 1 3 6 2 2-2 1-9 2-3v-7l-2-3-1-219-2-5v-4l-9 2-1 1-1 165h-1l-2-65-1-72v-23l3-9z" fill="#FBFAFA"/>
<path transform="translate(1124,551)" d="m0 0h25v70h-26v-69z" fill="#284169"/>
<path transform="translate(1499,151)" d="m0 0 2 1-6 5-4 6-4 14-1 6v43l1 37 1 141 3 17 6 16 2 5-5-5-6-12-5-18-2-16-3-84v-55l1-53 2-18 4-14 7-11 5-4z" fill="#FEFCFC"/>
<path transform="translate(331,116)" d="m0 0h39l15 1v2h11l9 3 16 8 9 9 7 14 3 8v16l3 1v169h-3l-1-169-4-20-5-12-7-9-8-7-14-6-14-3-30-2h-16l-26 2-16 4-13 5-11 8-3 1-2 4-7 10-6 12-4 12-3 13-2 27v57l12-1 26-3 18-2 20-2 5-1v4l-3 2h-25l-1 3-22 1-4 2-19 1-4 2h-5l-3-6-1-1v-12l2-2 1-68 2-2 1-12 5-13 9-17 8-11 11-7 7-4 18-6h9v-2z" fill="#FEFCFC"/>
<path transform="translate(876,140)" d="m0 0 4 1-11 6-8 7-7 11-3 9v109l-2 94 2 15 4 10 3 6-4-2-6-8-4-11-1-6-1-16v-117l2-62 2-15 4-10 8-10 7-6 8-4z" fill="#FEFCFC"/>
<path transform="translate(1707,182)" d="m0 0h2l2 41 2 97v72l-1 89h-2l-1-2-3-67-1-45v-118l1-56z" fill="#FEFCFC"/>
<path transform="translate(68,153)" d="m0 0h1l1 71v197l-1 74h-1l-2-35-2-49-1-34v-99l2-68 2-49z" fill="#FEFCFC"/>
<path transform="translate(1019,312)" d="m0 0h94l2 3-1 1h-91v35l2 17 3 15 5 14 8 14 12 13 11 7 15 6 21 5 16 2 15 1h19l17-2 16-4 13-5 12-7 12-11 7-10 5-10 5-15 5-27h1v19l-2 4-1 9-2 3-2 7-8 17-18 18-7 4-2 2-9 3-6 3-7 2-13 2-5 2h-49l-4-2-13-1-16-4-14-5-12-7-5-4-4-5-5-5-4-5-8-16-3-9-2-10-1-1v-19h-2l-1-2v-41z" fill="#FEFCFC"/>
<path transform="translate(513,170)" d="m0 0h2l1 46v99l-2 79-2 53-2 1-1-14-1-35v-115l2-68z" fill="#FEFCFC"/>
<path transform="translate(394,176)" d="m0 0 2 1v193l-3 99h-2l-1-3-1-49v-125l1-42 3-67z" fill="#FEFCFC"/>
<path transform="translate(727,154)" d="m0 0 3 1 6 11 2 14v133l-2 75-1 28-2 4-1-1-1-24-1-66v-59l2-64v-37l-3-10z" fill="#FEFCFC"/>
<path transform="translate(611,156)" d="m0 0 4 2 6 9 2 9 1 83v33l-2 86-2 53-2 1-1-9-1-36v-116l2-68v-28l-3-12z" fill="#FEFCFC"/>
<path transform="translate(1116,46)" d="m0 0h30l15 1v2h11l12 4 16 8 10 6 10 10 6 9 5 9 2 7 3 9 1 2v15l3 1v63h-88l-1-2h-10l-1-56-3-5-4-3-4 1-2 3-2 7-3-1 2-9 5-5h7l5 5 3 6 1 10 1 43 31 1 60 1-1-50-2-19-3-13-6-15-7-10-9-10-9-6-15-8-8-3-15-3-11-1h-41l-16 2-15 3-7 1 2-3 14-4 11-1 1-1z" fill="#FEFCFC"/>
<path transform="translate(1e3 168)" d="m0 0 3 1v119l-3 1h-107l1 98 3 6 4-1 5-8 1-68 1-1 14 1v1h-11v51l-1 18-4 8-5 3-5-1-4-4-2-8-1-84 1-13 2-1 41-1h68v-83z" fill="#FDFBFB"/>
<path transform="translate(1370,113)" d="m0 0 51 1v69l-4 1h-43l1 188 2 3 1 9 8 8 2 1 9 1 1 1 7 1v1h-13l-7-2-7-6-4-10-2-12-1-27-1-94v-66l1-1h47v-39l-1-22-46-1z" fill="#FEFCFC"/>
<path transform="translate(4,66)" d="m0 0h1l1 21v578h-3z" fill="#A5AEBF"/>
<path transform="translate(1111,87)" d="m0 0 1 2-10 4-9 6-6 9-4 10-3 13-1 8v39l4 20 5 12 6 9 4 5 14 11 10 7 1 2-6-2-15-8-10-9-7-7-8-14-5-15-2-10-1-13v-13l2-21 4-16 6-11 10-10 12-6z" fill="#FEFCFC"/>
<path transform="translate(1136,250)" d="m0 0 8 2 19 9 12 9 10 12 6 12 4 14 2 13v36l-3 21-5 13-7 9-7 6-5 1 5-5 6-8 4-11 3-19 1-32-2-22-5-19-6-11-9-10-15-10-16-9z" fill="#FEFCFC"/>
<path transform="translate(1708,125)" d="m0 0h33l1 4v8h2l2 20 2 5 2 1 1-5 5-8 18-18 8-4 10-3h23l8 4v104h-10l-7-2h-22l-12 6-2 5h-2l-2 4-3 7-2 7-1 1-1 15-3 1v-13l4-14 5-10 7-7 6-4 9-3h19l12 3 3 1-1-100-14-2h-12l-12 4-9 6-3 3h-2l-2 4-8 9-6 13-4 11-2-3-5-30-2-15-2-2-29-2z" fill="#FEFCFC"/>
<path transform="translate(791,551)" d="m0 0h25l1 1v22h11l1-23h25l1 1v68l-1 1h-25l-1-1v-27l-11-1v28l-1 1h-25l-1-1v-64zm3 2v66h20v-29l18 1v28l9 1h9l3-2v-21l-1-44h-19l-1 1v23l-17-1-1-23z" fill="#F9F8F8"/>
<path transform="translate(949,551)" d="m0 0h36l4 8 1 12h1l1-10 2-2 1-8h37l1 4-2-1-33-1-3 23-2 10h-2l-4-18-3-14h-32l-2 65h19v-36l1-14 3 4 6 29 2 12v5h19l2-4 3-16h2l-1 13-3 9h-26l-1-11-2-4v-11h-2v25l-1 1h-26v-33l1-2h2v-34z" fill="#FEFCFC"/>
<path transform="translate(558,551)" d="m0 0h48l8 6 4 7v19l-5 4 2 5 2 11 1 1 2 11 1 1v5h-29l-1-11-2-4v-8l-5 1-1 22h-26l-3-5v-59l3-5zm8 2-6 1v65h20l1-23h9l3 6 4 17 17 1 4-1v-7l-4-14-3-5-5-4 7-4 3-5v-14l-3-6-6-5-11-2z" fill="#FDFBFB"/>
<path transform="translate(207,286)" d="m0 0h17l1 1v220l-1 9-2 1-1-2v-227l-4 1-13 1-10 2-21 3h-10l2-3 18-2 1-1 13-1h10z" fill="#FEFCFC"/>
<path transform="translate(1951,172)" d="m0 0 9 1 10 5 7 7 8 16 5 19 1 7 1 19v106l-2 1-4-4-1-120-3-20-5-16-6-9-7-6-13-5z" fill="#FEFCFC"/>
<path transform="translate(1246,551)" d="m0 0h25l3 3 3 6 7 10 3 5 1 2 2-26h22l1 1v68l-1 1h-25l-4-8-8-11-2-4-1 22-1 1h-25l-1-9zm8 1-5 2v62l1 3h19v-34h2l2 5 10 16 8 13 17 1 3-1v-66h-18v35h-2l-2-5-12-19-7-10-1-1z" fill="#F6F5F7"/>
<path transform="translate(412,551)" d="m0 0h25l1 3-1 20 12 1v-22l1-2h25l1 1v32l-1 37h-25l-1-1v-28h-12l1 28-1 1h-26v-68zm4 2-1 1v65l17 1 3-1 1-28h18v28l7 1h10l3-1v-65l-1-1h-19v24h-18v-23l-1-1z" fill="#FEFCFC"/>
<path transform="translate(1684,551)" d="m0 0h24l5 5 8 11 5 10 1-25 1-1h22v2h-19v35l-4-4-9-14-7-11-4-5-19-1v66h19v-34l5 5 13 20 4 7v2h21v2h-25l-6-12-8-11-1 1-1 22h-26v-69z" fill="#FEFCFC"/>
<path transform="translate(1932,202)" d="m0 0 6 1 5 6 2 13v91l-1 1-13-1-6-2v-100l5-8zm0 5-3 3-1 13v84l1 2 7 3h4v-101l-3-4z" fill="#FDFBFB"/>
<path transform="translate(1338,551)" d="m0 0h41l1 1v9l-3 3-1-9-5-1h-26l-8 3-4 8-1 11 2 7 7 7 10 4 8 3 2 2v5l-4 1-20-1-5 2v10l1 1 8 1h26l6-3 5-5 2-5v-12l-3-6-5-4-18-7-3-3 1-5h25v3l-4 1h-10l-6 1 9 3 10 5 4 4 3 7v15l-4 8-3 3-6 3h-40l-3-5v-10l4-5 21-1 1-1-15-6-10-10-1-2v-13l3-9 6-7z" fill="#FDFBFB"/>
<path transform="translate(300,337)" d="m0 0v3l-8 15-3 13-1 9-1 46v30l2 23 3 11 4 5 2 1-1 2-6-3-5-6-4-10-2-14v-76l1-14 5-16 7-12z" fill="#FEFCFC"/>
<path transform="translate(177,330)" d="m0 0h8l1 4-1 73-2 112h-2l-1-13-1-171-26 3h-7l1-2 24-5z" fill="#FEFCFC"/>
<path transform="translate(346,325)" d="m0 0h2v52l-1 57-2 15-4 6-5 2-4-1-3-3-2-10v-74l3-18 6-14 7-9zm-4 10-6 10-4 9-1 7-1 1v87l3 6 8-6 1-11 2-4v-99z" fill="#FEFCFC"/>
<path transform="translate(491,551)" d="m0 0h51l1 1v8h-1l-1-7-46 1-1 65h47v-13h-25l-2-2v-12l1-1h21l1-12h-22l-1-1v-11l2-1h25l1-3v5l-1 1h-24l-1 8 24 1v16l-1 1h-23l1 8 25 1 1 16-1 1h-52v-69z" fill="#FEFCFC"/>
<path transform="translate(2034,355)" d="m0 0h2v41l-2 1-28-6-70-14-7-1-1 130-2-2-1-12v-120h7l74 15 27 5z" fill="#FEFCFC"/>
<path transform="translate(1904,128)" d="m0 0h48l3 1v2h12l9 5 8 2 16 10 13 13 6 9 6 11 5 12 1 12 2 3v16l3 1v130h-2l-1-93-1-34-4-27-5-16-7-14-7-9-9-10-13-8-8-4-17-6-20-3h-30l-19 3-7 1 3-4 9-1z" fill="#FEFCFC"/>
<path transform="translate(1943,414)" d="m0 0 12 1 35 8 28 6 1 1 14 2 3 2v76l-3 2-1-76-33-8-47-10h-6v77l-1 17-3 7-2 2h-6l-5-6-1-2v-7l2 4 4 7v2h3l2-4 2-7 1-2z" fill="#FDFBFB"/>
<path transform="translate(1492,551)" d="m0 0h50l10 10v5l-3-3-5-6-4-2-7-1h-37l-1 65h20v-24h10l3 4 4 17v3h21l-4-17-4-9-4-3 1-3 6-2 2-4 2-1v5l-5 6 2 2 2 5 1 1 1 10 2 2v10h-26l-3-7-2-10-2-5-4-1-1 23h-26v-69z" fill="#FEFCFC"/>
<path transform="translate(743,551)" d="m0 0h32l1 4-5-1h-24l-9 4-8 6-4 8-1 5v19l3 9 7 8 7 4 4 1h25l3-1 1-2v-11l-21-1-7-6-2-9 1-11 3-8 3-1h22l2-1v4l-7 1h-18l-3 9v10l2 6 5 2 2 1 21 1 1 1v15l-4 4h-36l-8-5-7-7-4-10v-23l4-12 4-5z" fill="#FEFCFC"/>
<path transform="translate(295,551)" d="m0 0h25l3 6 2 17 2 3v6h3l-1-2v-9l3-13 1-8h28l1 1 1 7 1 1v14h-1l-4-20-22-1-2 17-5 27-2 3-3-13-6-33-18-1h-3l5 21 11 44 7 1h18l2-1v3h-32l-1-8-2-3-4-20-2-5-1-7-2-6-2-7z" fill="#FEFCFC"/>
<path transform="translate(1184,551)" d="m0 0h31l8 5 5 5 3 7 2 6 1 2v18l-3 2-1-21-4-11-8-7-9-3h-21l-9 4-8 6-4 9-1 5v16l4 13 8 8 9 3 14 1 13-2 9-6 4-6 3-8h1v9l-5 6-4 6-5 2-1 1h-37l-10-7-5-6-3-10v-24l7-14 9-6z" fill="#FEFCFC"/>
<path transform="translate(885,551)" d="m0 0h33l1 1 1 7 2 5 1 7 4 10 3 9 4 16 2 4 1 10-1 1h-26l-1-8-3-6h-12l-2 11-3 3h-25v-5l2-6 4-14 10-30 2-9zm3 2-3 9-9 30-8 24v3h21l3-12v-2l18 1 2 5 2 8h21l-2-9-16-55-1-2z" fill="#FDFBFB"/>
<path transform="translate(1582,551)" d="m0 0h30l3 3 4 11 1 8 4 10 4 13 1 7 4 10 1 7-1 1h-25l-4-10-1-4h-12l-2 8-2 6h-26v-7l2-3 4-18 12-35zm3 2-4 10-10 33-7 22 1 1 16 1 5-2 3-12h18l3 12 1 1 16 1 4-1-1-8-11-37-6-20-1-1z" fill="#FEFCFC"/>
<path transform="translate(1418,551)" d="m0 0h61v2l-57 1-1 13h9l10 1v51h20l-1-45 1-6 18-1 1 4h-17v49l-1 1h-26v-50l-10 1-5-1-2-3z" fill="#FEFCFC"/>
<path transform="translate(902,160)" d="m0 0 6 1 5 6 1 3v71l-1 1h-19l-1-1v-67l3-9zm1 3-4 4-3 5v67h14v-69l-4-7z" fill="#F9F7F8"/>
<path transform="translate(1636,200)" d="m0 0 3 1 1 5v210l-1 12-3 2 1-21 1-24v-32l-1-26-1-76z" fill="#FEFCFC"/>
<path transform="translate(1987,448)" d="m0 0h5v56l-2 17-5 15-7 11-5 5-6 4-3 1h-15l-1-2 13-1 8-4 8-9 6-15 2-11 1-20v-32z" fill="#FEFCFC"/>
<path transform="translate(942,144)" d="m0 0 5 2 7 8 5 11 2 9v89l-5-1-1-83-3-17-4-9z" fill="#FEFCFC"/>
<path transform="translate(1051,551)" d="m0 0h47l9 5 4 8v21l-5 9-5 4h-24v22l-1 1h-26v-69zm3 2-1 1v65l17 1 4-1v-23h23l5-2 5-6 2-6v-14l-3-8-5-4-4-2-6-1z" fill="#FEFCFC"/>
<path transform="translate(558,195)" d="m0 0h1l1 16v153l-3 2-1-3v-48l1-119z" fill="#FEFCFC"/>
<path transform="translate(113,88)" d="m0 0h24l9 2 13 7 8 10 5 11 3 15v14l-2-1-5-24-6-14-6-7-12-6-7-2-13-1-19 2-12 5-10 9-8 16-1-3 6-14 9-10 12-6z" fill="#FEFCFC"/>
<path transform="translate(1124,551)" d="m0 0h25v70h-26v-69zm2 2v66h20v-66z" fill="#FEFCFC"/>
<path transform="translate(631,551)" d="m0 0h51l1 1v8h-1l-1-6h-46l-1 65 47-1 1-7h1v9l-1 1h-52v-69z" fill="#FEFCFC"/>
<path transform="translate(1643,551)" d="m0 0h25l1 2-1 24h-1v-24l-19 1-1 65h17l4-1v3h-25l-1-1v-66z" fill="#FEFCFC"/>
<path transform="translate(1032,560)" d="m0 0 4 1v59l-1 1h-22l-1-1-1-15-2-4v-3h-3l1-8 5-20 2-2 1 25v26h19l-1-13z" fill="#FEFCFC"/>
<path transform="translate(1527,181)" d="m0 0h1l1 14v151h-1l-2-65-1-72v-23z" fill="#FEFCFC"/>
<path transform="translate(151,46)" d="m0 0 9 1 7 4 9 3 14 9 17 17 4 7 5 10 4 13 2 7v8h2l1 6v67h-1l-1-43-3-30-5-21-5-12-6-10-11-12-9-7-14-8-17-6-3-2z" fill="#FEFCFC"/>
<path transform="translate(1123,171)" d="m0 0 3 3 3 9 6 8 9 7 22 11 9 3 20 10 11 8 9 6 10 10 4 7 5 8 3 7v4h-2l-8-17-7-9-10-10-18-11-14-8-21-9-19-10-6-5-6-9-4-11z" fill="#FEFCFC"/>
<path transform="translate(957,331)" d="m0 0 4 1v38l-3 15-7 14-9 10-9 5-2-1 10-7 7-10 5-12 2-15 1-37z" fill="#FEFCFC"/>
<path transform="translate(970,569)" d="m0 0 3 4 6 29 2 12v5h19l2-4 3-16h2l-1 13-3 9h-26l-1-11-2-4v-11h-2v25l-1 1h-5l1-2h2v-36z" fill="#FBFAFA"/>
<path transform="translate(374,551)" d="m0 0h25l1 1-1 14h-2v10l-2 2-1 10-2 2-1 10-3 1 1-9 6-25 3-14h-21l-2 17-5 30-2-1-4-20v-5l4 5 2 1v-10l1-7h2v-7z" fill="#FEFCFC"/>
<path transform="translate(304,162)" d="m0 0 1 2-7 11-4 8-4 15-2 36-5-1v-29l3-16 7-14 9-10z" fill="#FEFCFC"/>
<path transform="translate(1198,566)" d="m0 0 7 2 4 6 1 4v14l-3 10-5 4h-7l-5-4-3-7v-19l3-7 3-2zm-2 3-6 3v24l6 7 4-1 5-6v-20l-6-7z" fill="#FEFCFC"/>
<path transform="translate(541,563)" d="m0 0h1v5l-1 1h-24l-1 8 24 1v16l-1 1h-23l1 8 25 1-1 3-25-1-2-2v-12l1-1h21l1-12h-22l-1-1v-11l2-1h25z" fill="#FDFBFB"/>
<path transform="translate(474,575)" d="m0 0h2l-1 46h-25l-1-1v-28h-12l1 28-1 1h-5l1-2h2v-28l1-1h15l3 1v28h20z" fill="#FEFCFC"/>
<path transform="translate(681,565)" d="m0 0 1 3-25 1-1 8 24 1v16l-1 1h-23l1 8 25 1v4l-1-2h-25l-2-2v-12l2-1h20l1-11-22-1-1-1v-10l2-2z" fill="#FDFBFB"/>
<path transform="translate(1257,551)" d="m0 0h14l3 3 3 6 7 10 3 5 1 2 2-26h22l1 3-1 18h-1v-19h-18v35h-2l-15-24-7-10-12-1z" fill="#FEFCFC"/>
<path transform="translate(2032,224)" d="m0 0 4 1v130h-2l-1-93z" fill="#F1F1F3"/>
<path transform="translate(1551,580)" d="m0 0h1v5l-5 6 2 2 2 5 1 1 1 10 2 2v10h-26l-3-7-2-10-2-5-4-1-1 11h-1l-1-14h10l3 4 4 17v3h21l-4-17-4-9-4-3 1-3 6-2 2-4z" fill="#F0F0F2"/>
<path transform="translate(1297,52)" d="m0 0h30v1l-24 1-4 1-5 28-6 31-5 3-8 3-4-1 8-5 4-1 2-5 1-8 3-14 1-7 1-1 2-16 3-9z" fill="#FDFBFB"/>
<path transform="translate(963,312)" d="m0 0h43l1 12-1 43-3 2v-53h-40l-1-2z" fill="#FEFCFC"/>
<path transform="translate(450,551)" d="m0 0h25l1 1v23h-2l-1-21-19-1v24h-18l-1-3v-18l2-1 1 4-1 15 12 1v-22z" fill="#EEEEF1"/>
<path transform="translate(1565,116)" d="m0 0 10 1 1 1 10 2 12 6 11 8 15 15 7 15 3 10 3 12v7l-1 5h-1l-4-22-6-18-7-11-5-5v-2l-4-2-5-4-14-8-13-5-12-3z" fill="#FCFBFB"/>
<path transform="translate(4,542)" d="m0 0h2v123h-3v-30z" fill="#BEC4D0"/>
<path transform="translate(348,579)" d="m0 0 2 2 5 27 1 11h26l2-6h1v8h-32l-1-5-2-1v-17h-3l-2 5-1 12h-2l-1 2 1-10 5-26z" fill="#FCFAFA"/>
<path transform="translate(2020,431)" d="m0 0 13 1 3 2v76l-3 2-1-76-12-3z" fill="#E0E2E7"/>
<path transform="translate(1707,585)" d="m0 0 5 5 13 20 4 7v2h21v2h-25l-6-12-8-11-1 1-1 22h-5l1-2h2z" fill="#FAF9F9"/>
<path transform="translate(1153,88)" d="m0 0 8 1 9 4 6 4 8 9 4 8 3 15 1 11v16h-1l-5-29-5-16-6-9-8-7-11-5z" fill="#FEFCFC"/>
<path transform="translate(1070,347)" d="m0 0 2 1 3 24 5 16 7 10 8 6 11 5-4 1-11-4-8-6-6-8-5-12-2-14z" fill="#FEFCFC"/>
<path transform="translate(930,108)" d="m0 0h17l3 2 7 2 9 3 12 6 6 6 5 3 3 5 5 5 3 9 3 6v13h-1l-4-15-4-10-10-13-13-9-14-6-9-3-18-3z" fill="#FEFCFC"/>
<path transform="translate(1789,172)" d="m0 0h9l1 5-5 2-16 4-10 6-8 6 1-4 7-8 8-6 8-4z" fill="#FEFCFC"/>
<path transform="translate(921,571)" d="m0 0 3 1 5 17 2 7 4 13 1 1 1 10-1 1h-26l-1-8-3-6v-2l5 1 2 5 1 8h21l-13-43z" fill="#FEFCFC"/>
<path transform="translate(1119,315)" d="m0 0 4 1v59l-2-1-1-5-1-29z" fill="#FEFCFC"/>
<path transform="translate(1517,565)" d="m0 0h7l6 3 1 2v9l-5 3h-10l-2-3v-8l2-5zm1 3-1 1v11l9-3v-8z" fill="#F3F2F4"/>
<path transform="translate(901,569)" d="m0 0h2l4 15v8l-1 1h-8l-3-2 1-9zm-2 11-1 2 2 7h4l-2-4-2-5z" fill="#F0F0F2"/>
<path transform="translate(1242,310)" d="m0 0 1 2 3 1v37l-1 3-3-1z" fill="#FEFCFC"/>
<path transform="translate(1076,565)" d="m0 0 9 1 4 4v11l-3 2h-11l-2-4v-9l1-4zm1 3-1 1v10l1 1h8v-8l-3-3z" fill="#F8F7F8"/>
<path transform="translate(582,565)" d="m0 0 10 1 3 3 1 2v8l-4 3h-10l-2-1v-12zm3 3-2 2v10l4-1 5-2v-5l-5-4z" fill="#FEFCFC"/>
<path transform="translate(1597,569)" d="m0 0 3 3 4 14v6l-9 1-3-1 1-10zm-1 11v9h3l-1-9z" fill="#FEFCFC"/>
<path transform="translate(1e3 168)" d="m0 0 3 1v113h-1l-1-80z" fill="#FEFCFC"/>
<path transform="translate(1589,605)" d="m0 0h18l2 3 2 10 16 2v1h-19l-4-10-1-4h-13z" fill="#FCFAFA"/>
<path transform="translate(1333,52)" d="m0 0h37l1 5-1 51h-1l-1-55h-35z" fill="#FEFCFC"/>
<path transform="translate(2032,512)" d="m0 0 2 1-1 23-2 4-1 11-3 1 1-11 2-14z" fill="#FEFCFC"/>
<path transform="translate(1236,273)" d="m0 0 3 1 2 11 2 4v20l-2-3-4-26z" fill="#FEFCFC"/>
<path transform="translate(1551,580)" d="m0 0h1v5l-5 6 2 2 2 5 1 1v10l-2-4-4-10-5-5 1-3 6-2 2-4z" fill="#FBF9FA"/>
<path transform="translate(1477,567)" d="m0 0 2 1v3h-17v17h-1l-1-20z" fill="#D5D8E0"/>
<path transform="translate(164,292)" d="m0 0m-1 1m-12 1h12v2l-20 3-4-1 4-3z" fill="#F4F3F5"/>
<path transform="translate(541,563)" d="m0 0h1v5l-1 1h-14l-11-1 1-2h24z" fill="#FEFCFC"/>
<path transform="translate(76,533)" d="m0 0 4 5 5 5 6 2h8l-2 3-5 1-9-3-5-6-2-4z" fill="#FEFCFC"/>
<path transform="translate(1e3 599)" d="m0 0h2l-1 13-3 9h-18v-1l15-1 2-4z" fill="#FEFCFC"/>
<path transform="translate(1994,425)" d="m0 0 11 1 13 3 2 3-8-1-18-4z" fill="#FEFCFC"/>
<path transform="translate(614,599)" d="m0 0h2l2 5 2 11 1 1v5h-8l1-2h4l-2-9z" fill="#FEFCFC"/>
<path transform="translate(129,297)" d="m0 0h10l1 2-11 2h-8l2-3z" fill="#FEFCFC"/>
<path transform="translate(1121,143)" d="m0 0h2v24l-2-1-1-9z" fill="#FEFCFC"/>
<path transform="translate(1498,114)" d="m0 0h17l-2 2-18 2z" fill="#FEFCFC"/>
<path transform="translate(1633,180)" d="m0 0 3 1 1 5v7l-1 5h-1l-2-11z" fill="#FEFCFC"/>
<path transform="translate(1546,114)" d="m0 0h17l1 3h-10l-7-1z" fill="#FEFCFC"/>
<path transform="translate(131,44)" d="m0 0h17l1 3-16-1z" fill="#FEFCFC"/>
<path transform="translate(1635,431)" d="m0 0 2 1v8l-2 7h-2l1-10z" fill="#FEFCFC"/>
<path transform="translate(516,566)" d="m0 0m-2 1 3 1-1 9 4 1v1h-5l-1-1z" fill="#F7F6F7"/>
<path transform="translate(344,601)" d="m0 0 1 2-1 12h-2l-1 2 1-10z" fill="#FEFCFC"/>
<path transform="translate(1565,116)" d="m0 0 10 1 2 3-8-1-4-1z" fill="#FEFCFC"/>
</svg>
