<svg width="61" height="41" viewBox="0 0 61 41" fill="none" xmlns="http://www.w3.org/2000/svg">
<path fill-rule="evenodd" clip-rule="evenodd" d="M28.4477 0.164192C28.5314 0.134293 29.3805 0.12233 30.3314 0.134293C31.8922 0.152229 32.538 0.194092 33.0822 0.313694C34.9061 0.708378 36.1141 1.2406 37.1785 2.13163C37.5852 2.46651 37.7167 2.61003 38.0337 3.06452C38.3626 3.52498 38.4822 3.78213 38.6377 4.36219C38.7633 4.81668 38.7633 5.86917 38.6377 6.28179C38.3147 7.34026 37.8124 8.12963 36.9035 9.02066C36.3114 9.59474 35.3606 10.3303 35.2051 10.3303C35.1752 10.3303 35.1453 10.3542 35.1453 10.3901C35.1453 10.42 35.1154 10.4499 35.0795 10.4499C35.0437 10.4499 34.942 10.4977 34.8583 10.5635C34.5951 10.7429 34.1287 10.9881 34.045 10.9881C34.0031 10.9881 33.9194 11.0419 33.8656 11.1017C33.7639 11.2094 33.7699 11.2213 33.9613 11.3589C34.3081 11.616 34.8762 11.8432 35.4503 11.9509C35.7792 12.0107 36.0304 12.0645 36.6702 12.1961C37.1427 12.2917 38.3446 12.2917 38.9128 12.1961C39.1579 12.1542 39.4809 12.1004 39.6304 12.0765C39.8516 12.0406 39.8935 12.0107 39.8815 11.915C39.6662 10.432 39.6662 10.4678 39.744 9.95953C39.8217 9.45122 39.9054 9.12232 39.9951 8.94292C40.025 8.88312 40.049 8.79939 40.049 8.75155C40.049 8.70371 40.1446 8.48245 40.2642 8.25521C41.3167 6.28777 43.7267 4.7808 46.8064 4.17681C47.9785 3.94359 48.3612 3.91369 49.8264 3.90771C50.7413 3.90771 51.5187 3.93761 51.8297 3.98545C52.4456 4.07515 53.2171 4.21867 53.5101 4.29641C53.6297 4.32631 53.7971 4.35023 53.8808 4.35023C53.9646 4.35023 54.0543 4.37415 54.0722 4.41003C54.0901 4.43993 54.1679 4.46983 54.2396 4.46983C54.3114 4.46983 54.5984 4.55355 54.8795 4.65522C55.1606 4.75687 55.4476 4.85256 55.5254 4.8705C55.5971 4.88844 55.6749 4.92432 55.6928 4.95422C55.7107 4.98412 55.7646 5.00804 55.8124 5.00804C55.9858 5.00804 57.2476 5.6778 57.9293 6.13229C58.6529 6.61069 59.5679 7.45986 60.0044 8.05787C60.417 8.61999 60.8177 9.4871 60.9373 10.0791C61.021 10.4977 61.021 11.7595 60.9373 12.1243C60.6263 13.4459 59.6875 14.7197 58.336 15.6525C57.744 16.0652 56.5958 16.6512 56.0157 16.8426C55.8004 16.9143 55.5792 16.9981 55.5254 17.028C55.4656 17.0638 55.3639 17.0878 55.2981 17.0878C55.2323 17.0878 55.1307 17.1117 55.0709 17.1416C54.9453 17.2074 53.9526 17.4466 53.5041 17.5183C53.3247 17.5482 52.6549 17.602 52.027 17.6379C50.8549 17.7037 49.0609 17.6439 48.1818 17.5123C47.7632 17.4466 46.8423 17.2432 46.328 17.0937C46.2144 17.0638 46.0529 17.016 45.9692 16.9981C45.8018 16.9502 45.6762 16.9084 45.3533 16.7648C45.2277 16.711 45.1021 16.6691 45.0722 16.6691C44.9765 16.6691 43.93 16.1848 43.5473 15.9635C42.8297 15.5569 42.1599 15.0605 41.5978 14.5283C41.3765 14.325 41.1732 14.1575 41.1314 14.1575C41.0297 14.1575 40.0729 14.624 40.0011 14.7077C39.9712 14.7496 39.8935 14.9349 39.8397 15.1143C39.7799 15.2937 39.6842 15.5927 39.6244 15.7781C39.4988 16.1429 39.4809 16.412 39.5646 16.6213C39.5945 16.6991 39.7201 17.028 39.8397 17.3569C39.9593 17.6858 40.0789 18.0087 40.1088 18.0745C40.2044 18.3196 40.4616 18.9834 40.5872 19.3303C40.6589 19.5276 40.7367 19.7429 40.7666 19.8087C40.7905 19.8745 40.8862 20.1137 40.9759 20.3469C41.1672 20.8492 41.2868 21.0705 41.3526 21.0525C41.3825 21.0466 41.7533 20.9868 42.1779 20.921C44.2589 20.604 45.126 20.5382 46.9559 20.5741C48.7978 20.61 49.7486 20.6997 51.142 20.9808C51.3094 21.0107 51.5606 21.0645 51.7101 21.0944C51.8596 21.1183 52.0749 21.1721 52.1885 21.202C52.3021 21.2379 52.5473 21.3037 52.7267 21.3515C53.2171 21.4891 54.0004 21.7462 54.1141 21.812C54.1739 21.8479 54.2456 21.8718 54.2755 21.8718C54.3891 21.8718 55.8423 22.5655 56.5001 22.9363C57.0263 23.2293 58.2702 24.222 58.6828 24.6824C58.9758 25.0113 59.3825 25.5256 59.5499 25.7887C59.9267 26.3927 60.3812 27.4931 60.3812 27.804C60.3812 27.8937 60.4051 27.9774 60.435 27.9954C60.4649 28.0133 60.5067 28.3602 60.5247 28.7608C60.5725 29.6279 60.4948 30.3396 60.2735 31.1409C60.2197 31.3323 60.1778 31.4399 59.9207 32.0379C59.7891 32.3489 59.6038 32.6957 59.4303 32.9588C59.3466 33.0844 59.2509 33.2339 59.215 33.2877C59.1852 33.3416 59.1433 33.3954 59.1254 33.4133C59.1074 33.4313 59.0177 33.5509 58.916 33.6824C58.4616 34.3043 57.2117 35.5362 56.7393 35.8293C56.1533 36.2 55.5014 36.0146 55.1725 35.3748C54.9393 34.9203 55.0529 34.5555 55.5911 34.0532C55.7945 33.8678 55.9739 33.7123 55.9918 33.7123C56.0097 33.7123 56.2549 33.4671 56.542 33.1681C57.0981 32.5881 57.5048 32.0738 57.6722 31.7389C57.732 31.6253 57.8217 31.4638 57.8695 31.3861C57.9652 31.2246 58.1207 30.8239 58.2941 30.2738C58.4556 29.7655 58.4496 28.7548 58.2881 28.1628C57.9652 26.9907 57.0443 25.8545 55.6868 24.9396C55.0948 24.5449 53.6656 23.8632 52.9958 23.6598C52.8642 23.624 52.7028 23.5701 52.637 23.5462C52.4875 23.4924 51.4769 23.2173 51.1121 23.1336C50.7593 23.0559 50.5141 23.014 50.0058 22.9482C49.7785 22.9183 49.3838 22.8645 49.1387 22.8286C48.8935 22.7927 47.8948 22.7509 46.926 22.7329C45.5088 22.709 44.9945 22.721 44.2948 22.7987C43.8164 22.8585 43.3201 22.9123 43.1885 22.9243C42.6144 22.9841 42.13 23.0917 42.1001 23.1755C42.0822 23.2233 42.1181 23.3967 42.1838 23.5642C42.2556 23.7376 42.3692 24.0366 42.441 24.2339C42.5127 24.4313 42.5965 24.6406 42.6264 24.6944C42.6563 24.7542 42.6802 24.8439 42.6802 24.8917C42.6802 24.9396 42.7041 25.0293 42.74 25.0891C42.8058 25.2147 42.9433 25.5436 43.039 25.8186C43.0809 25.9323 43.1347 26.0818 43.1586 26.1475C43.3918 26.7037 43.5174 27.0864 43.4875 27.1343C43.4157 27.2479 43.2842 27.1881 43.1167 26.9668C43.027 26.8472 42.8177 26.5841 42.6623 26.3867C42.5008 26.1894 42.3393 25.9861 42.3034 25.9382C42.124 25.711 41.7473 25.2505 41.7234 25.2206C41.7054 25.2027 41.4483 24.8857 41.1553 24.509C40.3898 23.5462 40.3121 23.4685 40.1745 23.5462C40.1088 23.5761 40.0011 23.606 39.9353 23.606C39.8636 23.606 39.7619 23.6299 39.7021 23.6598C39.6483 23.6897 39.3613 23.7854 39.0623 23.8811C38.7692 23.9708 38.5001 24.0665 38.4702 24.0964C38.4343 24.1203 38.3626 24.1442 38.3028 24.1442C38.243 24.1442 38.1473 24.1681 38.0875 24.198C38.0337 24.2279 37.8902 24.2937 37.7765 24.3416C36.8317 24.7422 35.7015 25.2984 35.235 25.5914C35.0377 25.711 34.8045 25.8485 34.7207 25.8964C33.9553 26.303 32.1732 27.9535 31.6649 28.719C30.7081 30.1721 30.445 31.5475 30.8815 32.8153C31.2344 33.8319 31.8084 34.5974 32.7832 35.3509C33.4948 35.901 33.6862 36.0206 34.6071 36.4631C35.2589 36.7801 35.2948 36.798 35.7433 36.9714C35.8928 37.0312 36.0662 37.097 36.132 37.1209C36.1978 37.1508 36.3174 37.1867 36.4011 37.2106C36.4849 37.2286 36.6463 37.2764 36.7599 37.3063C36.8736 37.3422 37.0649 37.3901 37.1785 37.42C37.2922 37.4439 37.6031 37.5216 37.8662 37.5874C38.4702 37.7369 38.9247 37.8266 39.2716 37.8685C39.4211 37.8804 39.7978 37.9283 40.1088 37.9701C40.7606 38.0538 43.8702 38.0718 45.1619 37.994L45.9991 37.9462L46.2144 38.1316C46.4596 38.3349 46.6868 38.7714 46.6868 39.0166C46.6809 39.3156 46.4297 39.7103 46.1247 39.9017C45.7539 40.1289 45.3353 40.1708 42.8596 40.2126C41.0297 40.2425 40.2403 40.2067 39.1819 40.0392C38.9546 40.0033 38.6138 39.9495 38.4343 39.9256C37.9978 39.8538 37.1845 39.6864 36.8197 39.5847C36.7061 39.5548 36.4609 39.4831 36.2815 39.4352C35.8928 39.3276 35.0496 39.0525 34.8762 38.9748C34.8104 38.9449 34.649 38.8791 34.5174 38.8253C33.8058 38.5263 32.8011 38.0299 32.6038 37.8804C32.5739 37.8565 32.3586 37.713 32.1254 37.5575C30.8576 36.7143 29.7752 35.5422 29.231 34.4C28.8065 33.515 28.6689 33.0366 28.5673 32.1336C28.5015 31.5296 28.5673 30.513 28.6928 30.196C28.7227 30.1183 28.7467 30.0107 28.7467 29.9568C28.7467 29.6459 29.3387 28.3542 29.8111 27.6366C30.439 26.6857 31.5752 25.4897 32.4782 24.8319C32.6158 24.7362 32.7354 24.6406 32.7533 24.6226C32.8609 24.497 34.1108 23.7137 34.7566 23.3668C35.6417 22.8944 36.0722 22.6911 36.8795 22.3801C37.1905 22.2605 37.4895 22.1409 37.5373 22.117C37.5852 22.0931 37.7885 22.0213 37.9858 21.9675C38.1832 21.9077 38.3925 21.8359 38.4463 21.806C38.5061 21.7761 38.5958 21.7522 38.6437 21.7522C38.8829 21.7522 38.7752 21.5429 38.1234 20.7236C37.7526 20.2512 37.2443 19.6113 36.9991 19.3004C36.754 18.9894 36.4908 18.6665 36.4131 18.5828C36.3413 18.499 36.2217 18.3495 36.1559 18.2539C36.0842 18.1522 35.9108 17.9788 35.7613 17.8652C35.6118 17.7515 35.4623 17.626 35.4204 17.5961C35.3307 17.5064 34.7506 17.2432 34.4576 17.1476C34.326 17.1057 34.1646 17.0519 34.0988 17.022C34.033 16.9981 33.8716 16.9442 33.74 16.9024C33.6084 16.8665 33.447 16.8127 33.3812 16.7888C32.7712 16.5555 32.6875 16.5436 32.0536 16.5615C31.4496 16.5854 30.756 16.7349 30.4091 16.9143C30.3493 16.9442 30.2596 16.9682 30.2118 16.9682C30.1639 16.9682 30.0742 16.9921 30.0144 17.022C29.9606 17.0519 29.7932 17.1057 29.6437 17.1476C29.4942 17.1894 29.2849 17.2552 29.1772 17.303C29.0696 17.3509 28.944 17.3868 28.9021 17.3868C28.7407 17.3868 28.7467 17.5721 28.9201 17.7635C30.2835 19.2645 31.1148 21.3695 30.9952 23.0439C30.9413 23.8273 30.7679 24.7123 30.6423 24.8379C30.6184 24.8618 30.6005 24.9336 30.6005 24.9934C30.6005 25.0532 30.5766 25.1489 30.5467 25.2087C30.5168 25.2625 30.4091 25.4838 30.3074 25.699C30.0144 26.321 29.7932 26.6738 29.3506 27.224C28.95 27.7143 27.8377 28.7309 27.2516 29.1376C26.8988 29.3828 26.5879 29.5861 26.5699 29.5861C26.552 29.5861 26.3965 29.6758 26.2231 29.7834C25.8942 29.9927 25.0091 30.4233 24.5905 30.5847C24.459 30.6386 24.3274 30.7043 24.2975 30.7342C24.2616 30.7582 24.1898 30.7821 24.1301 30.7821C24.0702 30.7821 23.9746 30.806 23.9148 30.8359C23.7294 30.9376 22.9759 31.2007 22.8742 31.2007C22.8204 31.2007 22.7606 31.2246 22.7427 31.2545C22.7247 31.2844 22.6231 31.3203 22.5154 31.3382C22.4078 31.3562 22.1985 31.404 22.049 31.4399C21.8995 31.4758 21.6722 31.5296 21.5407 31.5595C21.4091 31.5834 21.1161 31.6492 20.8829 31.703C19.9201 31.9303 18.8078 32.0319 16.8882 32.0738C15.0523 32.1156 14.9148 32.0857 14.556 31.6133C14.3407 31.3263 14.3228 30.7821 14.5321 30.4831C14.8311 30.0406 14.837 30.0406 16.4756 29.9927C18.6942 29.9329 19.2264 29.8731 20.9307 29.5203C21.5766 29.3887 22.5633 29.1017 22.7786 28.9821C22.8384 28.9522 22.9221 28.9283 22.9699 28.9283C23.0178 28.9283 23.2689 28.8386 23.532 28.7249C26.6536 27.3914 28.3759 25.6871 28.8065 23.5103C28.9021 23.02 28.8124 21.6804 28.6809 21.5967C28.651 21.5788 28.6271 21.507 28.6271 21.4353C28.6271 21.2319 28.1546 20.3349 27.7659 19.7907C27.5686 19.5157 27.1739 19.0672 26.8809 18.7921C26.259 18.1881 26.259 18.1881 25.3978 18.4931C25.2842 18.5349 25.0689 18.6007 24.9194 18.6426C24.7699 18.6844 24.6025 18.7383 24.5487 18.7682C24.4889 18.798 24.3992 18.822 24.3513 18.822C24.3035 18.822 24.2138 18.8459 24.154 18.8758C24.1001 18.9057 23.7294 19.0313 23.3347 19.1509C22.94 19.2765 22.5633 19.3961 22.4975 19.42C22.4317 19.4439 22.2583 19.4977 22.1088 19.5396C21.8098 19.6233 20.9307 19.9044 19.938 20.2333C19.2862 20.4426 19.035 20.4545 19.0709 20.2691C19.0829 20.2213 19.3041 20.0658 19.5673 19.9343C20.1772 19.6173 21.1041 19.121 21.1819 19.0612C21.2178 19.0373 21.5526 18.8519 21.9294 18.6545C23.6516 17.7575 23.9447 17.602 24.0942 17.5004C24.1779 17.4346 24.2676 17.3868 24.2915 17.3868C24.3154 17.3868 24.3992 17.3389 24.4769 17.2731C24.6085 17.1715 24.6085 17.1595 24.5128 17.0758C24.3752 16.9622 23.6098 16.5615 23.1134 16.3462C22.4257 16.0412 20.6437 15.4492 20.0457 15.3236C19.95 15.3057 19.7467 15.2579 19.5972 15.228C19.334 15.1682 19.2144 15.1502 18.1022 14.9648C17.7912 14.917 16.9899 14.8452 16.3201 14.8153C13.9101 14.6957 11.7693 14.911 9.67027 15.4911C9.13206 15.6406 8.39054 15.8977 8.32476 15.9575C8.29486 15.9874 8.23506 16.0113 8.1932 16.0113C8.1035 16.0113 6.68622 16.6991 6.24968 16.9562C5.26895 17.5243 4.18656 18.511 3.67825 19.3004C3.29553 19.8864 3.15201 20.1794 2.96662 20.7655C2.75134 21.4293 2.78124 22.7509 3.03241 23.3967C3.20583 23.8572 3.62443 24.6286 3.89353 24.9814C4.4736 25.7529 5.37659 26.596 6.26164 27.1941C6.76396 27.5349 6.94934 27.7442 7.03904 28.0671C7.10483 28.2884 7.09885 28.3721 7.01512 28.5874C6.82974 29.0778 6.49486 29.317 5.99851 29.317C5.73539 29.311 5.26297 29.1376 5.12543 28.9881C5.10749 28.9701 4.91014 28.8206 4.67692 28.6592C4.0251 28.2107 3.35533 27.5947 2.58988 26.7455C2.0756 26.1774 1.38789 25.0173 1.11879 24.2698C0.724103 23.1456 0.592542 21.824 0.789884 20.8672C1.18457 18.9057 2.1653 17.3927 3.94137 15.9934C4.25832 15.7363 4.5334 15.5329 4.55134 15.5329C4.56928 15.5329 4.71878 15.4373 4.88024 15.3236C5.03573 15.21 5.19121 15.1143 5.21513 15.1143C5.23905 15.1143 5.32875 15.0665 5.41247 15.0067C5.70549 14.8034 6.752 14.301 7.57725 13.9662C7.66097 13.9303 7.77459 13.8824 7.82841 13.8525C7.88821 13.8226 7.97791 13.7987 8.02575 13.7987C8.07359 13.7987 8.1633 13.7748 8.2231 13.7449C8.57592 13.5655 10.053 13.1888 11.2251 12.9795C13.0849 12.6446 15.9434 12.5848 18.2218 12.8359C18.6822 12.8838 19.9679 13.123 20.5839 13.2725C20.7154 13.3024 20.9307 13.3502 21.0623 13.3801C21.3732 13.4459 21.6304 13.5177 22.1088 13.6731C22.3241 13.7449 22.5932 13.8286 22.7068 13.8645C22.8204 13.9004 22.9699 13.9482 23.0357 13.9781C23.1015 14.002 23.3048 14.0858 23.4842 14.1575C24.3992 14.5223 25.4756 15.0605 26.1812 15.509C26.5041 15.7123 26.8151 15.8977 26.8749 15.9157C26.9766 15.9456 27.2277 15.8379 27.73 15.5509C27.8437 15.4851 28.1546 15.3177 28.4237 15.1801C28.944 14.917 29.2131 14.6778 29.6078 14.1575C29.7393 13.9781 29.9128 13.7628 29.9905 13.6791C30.3194 13.3143 30.732 12.6446 30.7619 12.4173C30.7978 12.1602 30.75 12.1303 30.3972 12.2379C30.2955 12.2738 30.0084 12.3276 29.7633 12.3635C29.5181 12.4054 29.1832 12.4592 29.0158 12.4891C28.8543 12.525 28.2204 12.5848 27.6164 12.6326C26.4922 12.7223 25.3081 12.6864 24.4111 12.5369C24.2138 12.5011 23.9028 12.4532 23.7234 12.4233C23.544 12.3934 23.2749 12.3396 23.1254 12.3097C22.9759 12.2798 22.7786 12.2319 22.6769 12.214C22.5812 12.1901 22.4437 12.1542 22.3779 12.1243C22.3121 12.1004 22.1626 12.0406 22.049 12.0047C21.0324 11.6399 19.95 11.012 19.3879 10.4619C18.5028 9.60072 18.0723 8.70371 18.0005 7.57348C17.9706 7.13096 17.9885 6.97548 18.1321 6.46717C18.455 5.32498 18.7659 4.82265 19.8005 3.77016C20.5301 3.03462 21.5467 2.33495 22.6769 1.78479C23.1075 1.57549 23.5201 1.37814 23.6038 1.34226C23.6875 1.31236 23.8071 1.26452 23.8729 1.23462C24.447 0.995419 25.942 0.576817 26.8031 0.409374C27.0005 0.367512 27.2756 0.313694 27.4191 0.283791C27.5566 0.247913 27.8138 0.223991 27.9872 0.21801C28.1546 0.212032 28.3639 0.18811 28.4477 0.164192ZM31.647 2.26319C31.2045 2.20339 29.1354 2.17947 28.9261 2.23329C28.8782 2.24525 28.5433 2.29907 28.1785 2.35289C27.3473 2.46651 26.7015 2.59209 26.2051 2.73561C26.0736 2.7715 25.8882 2.82532 25.7865 2.85522C25.5653 2.91502 25.2304 3.02864 25.0689 3.09442C25.0031 3.11834 24.7699 3.21402 24.5546 3.29176C23.1613 3.82997 21.8875 4.62531 21.0503 5.48046C20.2071 6.35355 19.9261 7.37016 20.3028 8.18345C20.5958 8.81136 21.4689 9.49906 22.4676 9.88179C23.5859 10.3123 24.9075 10.5336 26.4144 10.5336C28.0888 10.5396 30.2417 10.2167 30.2417 9.97149C30.2417 9.91767 29.8709 8.74557 29.7633 8.44657C29.5898 7.98013 29.5719 7.86053 29.6496 7.81269C29.6975 7.78278 29.7513 7.75887 29.7752 7.75887C29.8171 7.75887 30.732 8.54823 31.4616 9.21202C31.8802 9.59474 31.8503 9.58876 32.4663 9.3376C32.7712 9.21202 33.0523 9.09242 33.0822 9.07448C33.1181 9.05056 33.3872 8.90704 33.6862 8.75155C34.2124 8.47647 34.8224 8.05189 35.4084 7.54956C35.8031 7.2087 36.1978 6.68843 36.4071 6.23395C36.5566 5.90505 36.5805 5.77349 36.5805 5.33694C36.5805 4.71502 36.4549 4.41003 36.0124 3.93761C35.54 3.43528 34.8164 2.99874 34.1287 2.8014C33.9792 2.75954 33.8118 2.69974 33.7579 2.66983C33.6981 2.63993 33.5845 2.61602 33.5068 2.61602C33.4231 2.61602 33.3393 2.58611 33.3214 2.55621C33.3035 2.52033 33.2078 2.49641 33.1181 2.49641C33.0224 2.49641 32.7653 2.46053 32.538 2.41269C32.3108 2.36485 31.9101 2.29907 31.647 2.26319ZM28.1486 5.60604C28.6031 5.45654 29.3805 5.59409 29.6556 5.86319C29.8769 6.09043 29.8709 6.29973 29.6317 6.58677C29.2849 7.00538 28.4955 7.23262 27.7061 7.13694C27.437 7.10106 27.3294 7.05322 27.156 6.88578C26.9586 6.70638 26.9407 6.65854 26.9706 6.46119C27.0124 6.18013 27.3832 5.83927 27.754 5.72564C27.8855 5.68378 28.0649 5.62996 28.1486 5.60604ZM51.3214 5.78545C49.9998 5.68378 48.3672 5.74358 47.4044 5.93495C47.1234 5.99475 46.8064 6.05455 46.6988 6.06651C46.5911 6.08445 46.4895 6.12033 46.4715 6.15023C46.4536 6.18013 46.3818 6.20405 46.3161 6.20405C45.9154 6.20405 43.9061 7.08312 43.5593 7.40604C43.4875 7.46584 43.4098 7.51966 43.3799 7.51966C43.2842 7.51966 42.722 8.02797 42.3812 8.42863C41.837 9.08046 41.544 9.78012 41.544 10.4499C41.544 10.8625 41.6516 11.4007 41.7832 11.6519C41.8609 11.7894 41.849 11.7954 42.8297 11.6399C43.0629 11.61 43.4516 11.5562 43.6968 11.5323C43.942 11.5024 44.851 11.3828 45.7121 11.2572C46.5792 11.1316 47.3028 11.0479 47.3267 11.0718C47.4343 11.1735 47.1353 11.4067 46.6569 11.5861C46.5911 11.61 46.2802 11.7535 45.9692 11.903C45.6583 12.0466 45.2935 12.214 45.1619 12.2738C44.8629 12.4054 44.3725 12.6326 43.6191 12.9854C43.1885 13.1947 43.045 13.2844 43.0809 13.3442C43.1347 13.4339 43.7327 13.9183 43.7925 13.9183C43.8104 13.9183 43.9121 13.9841 44.0078 14.0738C44.229 14.2532 45.7121 14.9947 45.8556 14.9947C45.9154 14.9947 45.9812 15.0187 45.9991 15.0545C46.0171 15.0844 46.0888 15.1143 46.1546 15.1143C46.2144 15.1143 46.3161 15.1383 46.3759 15.1741C46.5074 15.2459 47.4044 15.4971 47.841 15.5868C49.037 15.82 49.4676 15.8618 50.8729 15.8559C51.8955 15.8559 52.6131 15.802 53.4443 15.6585C54.0004 15.5628 55.1068 15.2519 55.2084 15.1622C55.2383 15.1383 55.3101 15.1143 55.3699 15.1143C55.4297 15.1143 55.5254 15.0904 55.5852 15.0665C56.835 14.4625 57.0862 14.313 57.732 13.7868C58.4137 13.2366 58.7606 12.7522 59.1194 11.8672C59.2031 11.6579 59.2091 10.414 59.1254 10.3602C59.0955 10.3423 59.0655 10.2645 59.0655 10.1927C59.0655 9.94757 58.5094 9.05654 58.0549 8.58411C57.5646 8.06385 56.6855 7.44192 55.8662 7.0293C55.2264 6.70638 54.5925 6.44325 54.4489 6.44325C54.3951 6.44325 54.3353 6.41933 54.3174 6.38943C54.2994 6.35953 54.2097 6.32365 54.12 6.30571C54.0244 6.28777 53.839 6.23993 53.7014 6.21003C52.6669 5.94691 52.0868 5.84525 51.3214 5.78545ZM49.8264 9.8758C50.2151 9.78012 50.2689 9.78012 50.6456 9.85786C51.1898 9.96551 51.4589 10.0971 51.7101 10.3662C51.9732 10.6532 52.0031 10.8207 51.8536 11.1436C51.6802 11.5143 51.1121 11.7595 50.4184 11.7655C50.0237 11.7655 49.7965 11.7117 49.3838 11.5084C49.025 11.329 48.8396 11.0718 48.8396 10.7429C48.8396 10.5157 48.8695 10.4439 49.037 10.2884C49.2762 10.0552 49.4496 9.96551 49.8264 9.8758ZM14.7234 20.5562C15.6563 20.4246 16.655 20.6698 17.1453 21.1542C17.5879 21.5907 17.6118 22.123 17.1992 22.5356C16.9899 22.7449 16.8463 22.8286 16.3679 23.014C16.1168 23.1157 14.7713 23.1216 14.562 23.026C14.4842 22.9901 14.2809 22.9004 14.1015 22.8226C13.4556 22.5416 13.0849 21.9495 13.2583 21.501C13.4437 21.0286 14.0238 20.6519 14.7234 20.5562ZM8.45034 28.8326C8.5819 28.7548 8.78522 28.695 8.92276 28.695C9.15001 28.6891 9.56263 28.8027 9.64635 28.8864C9.67027 28.9103 9.75399 28.9283 9.83173 28.9283C9.90947 28.9283 10.0171 28.9522 10.0769 28.9881C10.3101 29.1196 11.243 29.3708 11.7812 29.4485C11.9008 29.4665 12.0204 29.5024 12.0384 29.5323C12.0563 29.5622 12.1221 29.5861 12.1879 29.5861C12.3613 29.5861 12.744 30.0047 12.8277 30.2857C12.9354 30.6505 12.8277 31.0332 12.5287 31.3323L12.2955 31.5655L11.7155 31.5416C11.3985 31.5296 11.0277 31.4877 10.8962 31.4459C10.7646 31.404 10.5792 31.3562 10.4776 31.3382C10.3819 31.3263 10.2444 31.2904 10.1786 31.2605C10.1128 31.2306 9.81977 31.1349 9.52077 31.0452C9.22775 30.9555 8.95864 30.8598 8.92874 30.8299C8.89286 30.806 8.8211 30.7821 8.76728 30.7821C8.56994 30.7821 8.23506 30.5309 8.08555 30.2738C7.78655 29.7715 7.94801 29.1256 8.45034 28.8326ZM44.0018 29.1436C45.0603 28.9103 46.1127 29.1316 46.6151 29.6877C47.0098 30.1362 46.8124 30.7701 46.1247 31.2246C45.9453 31.3442 45.7599 31.4399 45.7121 31.4399C45.6702 31.4399 45.6104 31.4578 45.5865 31.4818C45.4848 31.5834 44.6955 31.7329 44.229 31.7329C43.4755 31.7389 42.8955 31.5356 42.5367 31.1409C42.3513 30.9316 42.3214 30.8598 42.3214 30.5967C42.3214 30.4352 42.3573 30.2259 42.4051 30.1362C42.6204 29.7236 43.3141 29.2931 44.0018 29.1436ZM52.9061 35.7874C53.3845 35.614 54.0124 35.9788 54.1978 36.5349C54.2875 36.81 54.2875 36.8459 54.1798 37.1329C54.0842 37.408 53.7014 37.8386 53.5519 37.8386C53.522 37.8386 53.2649 37.9462 52.9779 38.0837C52.6908 38.2153 52.3499 38.3708 52.2184 38.4186C52.0868 38.4665 51.9254 38.5322 51.8596 38.5562C51.6563 38.6399 50.8549 38.903 50.5978 38.9688C50.3107 39.0465 50.0536 38.9807 49.7486 38.7535C49.4855 38.5562 49.3779 38.3229 49.3779 37.9283C49.3779 37.3362 49.647 37.0492 50.3945 36.8219C50.544 36.7801 50.6875 36.7203 50.7234 36.6904C50.7533 36.6665 50.831 36.6425 50.9028 36.6425C50.9745 36.6425 51.0523 36.6186 51.0882 36.5947C51.1181 36.5648 51.2616 36.493 51.4111 36.4392C51.5606 36.3794 51.8416 36.2598 52.039 36.1641C52.4277 35.9847 52.7626 35.8412 52.9061 35.7874Z" fill="url(#paint0_linear_199_2741)"/>
<defs>
<linearGradient id="paint0_linear_199_2741" x1="-37.3915" y1="20.1747" x2="66.2997" y2="20.1747" gradientUnits="userSpaceOnUse">
<stop stop-color="#4D4D4D"/>
<stop offset="0.05" stop-color="#636363"/>
<stop offset="0.3" stop-color="#D8D8D8"/>
<stop offset="0.43" stop-color="#EEEEEE"/>
<stop offset="0.55" stop-color="white"/>
<stop offset="0.62" stop-color="#EEEEEE"/>
<stop offset="0.72" stop-color="#DDDDDD"/>
<stop offset="0.8" stop-color="#D8D8D8"/>
<stop offset="0.83" stop-color="#B2B2B2"/>
<stop offset="0.86" stop-color="#8E8E8E"/>
<stop offset="0.9" stop-color="#717171"/>
<stop offset="0.93" stop-color="#5D5D5D"/>
<stop offset="0.97" stop-color="#515151"/>
<stop offset="1" stop-color="#4D4D4D"/>
</linearGradient>
</defs>
</svg>
